<svg xmlns="http://www.w3.org/2000/svg" xmlns:v="https://vecta.io/nano" viewBox="0 0 733 961.7"><path d="M524.3 292.9H377.8V170.6h53.5l-9.7 36.3h46.7l-7.5 30h-48.4l-7 25h104.4c5.3 9.9 10.1 20.3 14.5 31zm17.4 50.7H404.2l7.5 25h49.4l9.2 30.4h-48.6l9.6 35.6h-53.4V310.1H531c4 10.9 7.6 22.1 10.7 33.5zm-334.6-33.7h153.5v124.5h-53.4l9.6-35.6h-48.6l9.2-30.4h49.4l7.5-25H196.4c3.2-11.5 6.8-22.6 10.7-33.5zm6.6-17c4.4-10.7 9.3-21.1 14.4-31h104.3l-7-25H277l-7.5-30h46.7l-9.7-36.3H360v122.3H213.7z" fill="#d8000f"></path><g fill="#174676"><path d="M190.7 365.9h49.9c-16.6 117.5-7.7 220.6 42.8 299.9 37.3-47.6 60-110.7 63.2-194.9h42.7c3 67.3 20.6 139.7 64.4 196 53.8-77.4 63.7-207.3 43-301h50.6c5.1 22.6 8.6 45.9 10.4 69.3.7 8.9 1.1 17.8 1.2 26.6l.1 6.9c0 81.6-22.8 164.2-59.3 225-15.1 23.2-32.5 43.4-51.1 61.2-31.2-31.9-57.2-80-79.2-140.5-20.1 58.6-46 106.2-78.4 141.9-9.5-8.3-18.4-17.1-26.7-26.5-48.7-57.9-81.7-151.5-85-245.5-.3-22.3.7-45.5 3-69.9 2-16.4 4.8-32.6 8.4-48.5zM74.5 885.1L53 937.6H41.6L37 901l-14 36.6H11.7l-6.2-52.4h12l3.3 36.3 13.8-36.3h10.9l4.4 36.3 13.7-36.3h10.9zm20.4 0l-8.8 52.4h-12l8.8-52.4h12zm19.4 31.6l-3.5 20.9H99l8.8-52.4h19.4c4.9 0 8.7.5 11.3 1.6 2.7 1.1 4.7 2.9 6.3 5.5 1.5 2.6 2.3 5.3 2.3 8.1 0 3-.9 6-2.7 8.7-1.8 2.8-4.8 4.7-9 5.8l6.5 22.7h-12.2l-5.5-20.9h-9.9zm3.5-22.4l-2.2 13.3h7.8c3 0 5.2-.2 6.6-.6a6.96 6.96 0 0 0 3.5-2.3c.9-1.1 1.4-2.5 1.4-4.2 0-2.2-.7-3.8-2.1-4.7-1.4-1-3.7-1.5-7-1.5h-8zm78.1-9.2l-7.1 42.5h20.6l-1.7 10H175l8.8-52.4h12.1zm40.8 0l-8.8 52.4h-12.1l8.8-52.4h12.1zm49.8 0l-1.7 9.9h-24.7l-1.8 10.8H279l-1.6 9.5h-20.6l-2.1 12.3h25.1l-1.7 10h-37.3l8.8-52.4h36.9zm10.4 0h22.6c4.5 0 7.9.6 10.1 1.7s3.9 2.7 5.1 4.7 1.7 4.3 1.7 6.7c0 6.7-3.9 10.8-11.8 12.4 6.4 1.8 9.6 5.6 9.6 11.4 0 4.2-1.5 7.8-4.4 10.9s-8.1 4.6-15.6 4.6h-26l8.7-52.4zm7 30l-2.2 13.1h10.6c3 0 5.3-.6 6.8-1.9s2.2-2.9 2.2-4.7c0-2.3-.7-3.9-2.2-4.9s-3.9-1.5-7.3-1.5h-7.9zm3.6-21.2l-2 12.2h8.3c2.8 0 4.8-.1 5.9-.4s2.1-.9 2.9-1.9 1.2-2.3 1.2-4c0-3.9-2.6-5.9-7.9-5.9h-8.4zm80.2-8.8L386 895h-24.7l-1.8 10.8h20.6l-1.6 9.5H358l-2.1 12.3H381l-1.7 10H342l8.8-52.4h36.9zm51.2 0l-8.8 52.4h-9.8l-15.3-38c-.1 2.5-.9 8.5-2.5 18l-3.3 20h-9.9l8.8-52.4h13.3l12.6 32c.1-1 .8-6.2 2.3-15.4l2.8-16.6h9.8zm67.8 12.9l-10.8 2.5c-1.2-4.4-4.2-6.5-9-6.5-2.2 0-4 .5-5.2 1.6-1.3 1-1.9 2.3-1.9 3.8s.5 2.6 1.6 3.4c1 .8 3.1 1.5 6 2.3 4.3 1.1 7.6 2.2 10.1 3.4s4.3 2.9 5.7 5c1.3 2.1 2 4.7 2 7.8 0 4.9-1.8 9.1-5.5 12.4-3.6 3.3-8.8 5-15.5 5-5.7 0-10.5-1.3-14.3-4s-6.2-6.6-7.1-12l11.2-1.5c1.2 5.2 4.7 7.8 10.6 7.8 2.7 0 4.8-.6 6.2-1.7s2.2-2.6 2.2-4.4c0-1.7-.5-2.9-1.6-3.7s-3.6-1.7-7.6-2.8c-3.6-1-6.5-2-8.6-3.2a14.08 14.08 0 0 1-5.1-4.9c-1.3-2.1-1.9-4.5-1.9-7.2 0-4.4 1.7-8.3 5-11.7 3.4-3.4 8-5.1 13.9-5.1 10 0 16.6 4.6 19.6 13.7zm21.2 19.9l-3.3 19.7h-12.1l8.8-52.4H540c4.1 0 7.4.4 9.9 1.2s4.6 2.4 6.4 4.9 2.7 5.5 2.7 9.1c0 2.7-.6 5.3-1.7 7.9s-2.7 4.7-4.8 6.2-4 2.5-5.7 2.9-4.4.7-7.9.7h-11zm3.9-23.4l-2.4 14.3h9c3.1 0 5.4-.7 6.8-2.2s2.2-3.3 2.2-5.4c0-1.6-.6-3.2-1.7-4.5-1.2-1.4-3.7-2.1-7.6-2.1h-6.3zm52.6 43.9c-6.2 0-11.2-2.1-15-6.3s-5.7-9.7-5.7-16.6c0-8.3 2.2-15.6 6.7-21.9s10.4-9.4 17.9-9.4c6.4 0 11.4 2.1 15.2 6.3s5.6 9.8 5.6 16.8c0 8.4-2.2 15.7-6.7 21.8s-10.4 9.3-18 9.3zm.2-9.7c4.5 0 7.7-2.6 9.7-7.8 1.9-5.2 2.9-10.3 2.9-15.2 0-7.8-2.9-11.7-8.8-11.7-4.2 0-7.3 2.4-9.4 7.3s-3.2 10.2-3.2 16c0 7.6 2.9 11.4 8.8 11.4zm45.7-12l-3.5 20.9H615l8.8-52.4h19.4c4.9 0 8.7.5 11.3 1.6 2.7 1.1 4.7 2.9 6.3 5.5 1.5 2.6 2.3 5.3 2.3 8.1 0 3-.9 6-2.7 8.7s-4.8 4.7-9 5.8l6.5 22.7h-12.2l-5.5-20.9h-9.9zm3.6-22.4l-2.2 13.3h7.8c3 0 5.2-.2 6.6-.6a6.96 6.96 0 0 0 3.5-2.3c.9-1.1 1.4-2.5 1.4-4.2 0-2.2-.7-3.8-2.1-4.7-1.4-1-3.7-1.5-7-1.5h-8zm75.5.8h-13.2l-7.1 42.5H677l7.1-42.5h-13.2l1.7-9.9h38.5l-1.7 9.9zm14.4 30.8l-2 11.6h-11.6l2-11.6h11.6zm-2.5-4.1h-6.1l2-36.6h13.4l-9.3 36.6zM344.8 782.2c-7.1 0-12.6-3.1-16.6-9.4-3.9-6.3-5.9-14.2-5.9-23.7 0-9.4 1.9-17.3 5.8-23.7 3.8-6.4 9.5-9.6 16.8-9.6s12.9 3.2 16.8 9.6 5.9 14.2 5.9 23.5c0 9.5-2 17.4-5.9 23.8-3.9 6.3-9.6 9.5-16.9 9.5zm.2-55.6c-3.2 0-5.4 1.6-6.7 4.9s-1.9 9-1.9 17.3.7 14.1 2 17.3 3.5 4.9 6.6 4.9c3 0 5.2-1.6 6.6-4.8s2-8.8 2-16.8c0-8.8-.7-14.8-2-18-1.4-3.2-3.6-4.8-6.6-4.8zm40.1 15.7h6.1c3.5 0 5.8-.8 7.1-2.4 1.2-1.6 1.9-3.3 1.9-5.1 0-2-.7-3.9-2.1-5.4-1.4-1.6-3.3-2.4-5.8-2.4-4.7 0-7.7 2.8-8.9 8.3l-12-2.1c1-5 3.4-9.1 7.2-12.3 3.8-3.3 8.5-4.9 14.1-4.9 5.8 0 10.7 1.5 14.7 4.6s6 7.3 6 12.7c0 7-3.3 11.8-9.9 14.4 7.8 2.3 11.7 7.4 11.7 15.3 0 5.7-2 10.3-6 14-4 3.6-9.5 5.5-16.5 5.5-6.7 0-12-1.9-15.9-5.6s-6.3-8.4-7.1-14l12.3-2c1.2 6.6 4.6 10 10.4 10 2.7 0 4.8-.8 6.5-2.4s2.5-3.7 2.5-6.3c0-2.8-.8-4.9-2.3-6.3s-4.4-2.1-8.7-2.1h-5.3v-11.5zm-16-642.5c-135.6 0-245.5 164.9-245.5 368.3s109.9 368.3 245.5 368.3 245.5-164.9 245.5-368.3-110-368.3-245.5-368.3zm.2 712.1c-122 0-221.1-160.7-221.1-343.8s99-345.2 221-345.2S590 285 590 468.1s-98.7 343.8-220.7 343.8zM25.6 427.2l.2 11.8 42.2 5.6.2 10.8-42.2-5.6.2 11.8-9.9-1.3-.6-34.4 9.9 1.3zm-6-49.4l28.6 6.7c5.5 1.3 9.3 2.3 11.2 3.1 1.9.7 3.8 1.9 5.5 3.5 1.8 1.6 3.1 3.7 4 6.4s1.2 5.8.9 9.3c-.5 5.7-2.2 9.9-5.2 12.6s-6.7 3.9-11.1 3.5c-1.5-.1-3.2-.4-5.1-.8l-31.8-7.4.9-11.5 29.9 7c2.1.5 3.9.8 5.5.9 2.5.2 4.2-.4 5.3-1.9s1.7-3.1 1.9-5c.2-2.1-.2-3.9-1-5.3s-1.9-2.3-3.1-2.8-4.6-1.3-10-2.6L18.9 387l.7-9.2zM54 362.2l19.8 6.7-1.9 10.3-49.8-16.9 3.1-17c.8-4.3 1.9-7.5 3.3-9.7 1.5-2.1 3.6-3.7 6.3-4.5 2.8-.9 5.5-1.1 8.3-.6 3 .5 5.7 1.9 8.1 3.9s3.8 5.1 4.2 9l23.2-1.7-1.9 10.8-21.2 1.2-1.5 8.5zm-21.3-7l12.6 4.3 1.2-6.8c.5-2.6.6-4.6.5-5.9-.2-1.3-.7-2.5-1.7-3.5s-2.3-1.6-3.9-1.9c-2.1-.4-3.8 0-4.9 1-1.2 1.1-2 3-2.5 5.9l-1.3 6.9z"></path><path d="M42.8 275.3l47.8 21.8-2.4 8.4-40 2.8c2.4.8 7.9 3.1 16.5 7l18.3 8.3-2.4 8.5-47.9-21.8 3.2-11.4 33.6-2.1c-1-.4-5.7-2.4-14.1-6.2l-15.1-6.9 2.5-8.4zm18.1-46.8l40.6 38.9-4.1 10.6-50.9-12.4 3.9-10 37.9 9.9-30.8-28.2 3.4-8.8zM80.8 189l8.2 5.8-9.8 19.7 8.8 6.2 8.2-16.5 7.8 5.5-8.2 16.5 10.1 7.1 10-20 8.2 5.8-14.9 29.8-43-30.2L80.8 189zm37-.4l15.7 13.8-5.7 8.8-39.6-34.6 9.3-14.6c2.4-3.7 4.6-6.2 6.8-7.6s4.7-2 7.6-1.8 5.5 1.1 7.9 2.6c2.5 1.6 4.5 3.9 6 6.7 1.4 2.9 1.6 6.2.5 9.9l22.1 7.3-5.9 9.2-20.1-7-4.6 7.3zm-17-14.6l10 8.8 3.7-5.8c1.4-2.3 2.3-4 2.7-5.3s.3-2.6-.2-3.9-1.5-2.4-2.9-3.3c-1.8-1.2-3.5-1.5-5-1s-3 2-4.6 4.5l-3.7 6zm37.7-66.1l6.7 7.4-13.9 17.1 7.3 8 11.6-14.3 6.4 7-11.6 14.3 8.3 9.1 14.1-17.4 6.7 7.4-21 25.9-35.4-38.8 20.8-25.7zm16.4-16.4l31.9 41.8-7.5 7.7-31.9-41.8 7.5-7.7zm38.9-33.9l27.4 44.9-6.7 5.6L179.8 88c1.5 2 4.8 7 9.7 15.1l10.5 17.1-6.7 5.7-27.4-44.8 9.1-7.6 29 17c-.6-.8-3.4-5.2-8.2-13l-8.7-14.2 6.7-5.7zm81.1-44.4l5.5 55.1-9.1 4.4L251.7 42l4.6 38.1-9 4.4-27.7-44.3 9.7-4.7 18.4 31.1-4.7-37.9 8.8-4.3 19.3 30.7-4.8-37.8 8.6-4.1zm47.5-10.8l.9 9.9-21.3 5.3 1 10.7 17.9-4.4.9 9.5-17.9 4.4 1.1 12.3 21.8-5.3.9 9.9-32.4 7.9-4.8-52.4 31.9-7.8zm23.7 29.5L344 52.7l-10.5.5L338.8.9l17.3-.8c4.4-.2 7.7.2 10.2 1.1 2.4.9 4.4 2.6 5.8 5.1 1.5 2.5 2.3 5.1 2.4 7.9.1 3-.5 5.9-2 8.8s-4.1 4.9-7.8 6.1l6.9 22.2-10.9.5-5.9-20.4-8.7.5zm2.1-22.3l-1.4 13.3 6.9-.3c2.7-.1 4.6-.4 5.9-.9 1.2-.5 2.2-1.3 3-2.4.8-1.2 1.1-2.6 1-4.2-.1-2.2-.8-3.7-2.1-4.6s-3.4-1.3-6.3-1.1l-7 .2zm82.2-3l-15.6 50.2-8.7-1.3-7.9-39.3c-.5 2.5-2.1 8.2-4.9 17.3l-5.9 19.2-8.7-1.3 15.5-50.2L405.9 3l6.4 33c.2-1 1.7-5.9 4.3-14.8l4.9-15.9 8.9 1.3zM479 22.8l-4.6 8.8-20.8-7.2-5 9.6 17.4 6-4.4 8.4-17.4-6-5.7 10.9 21.2 7.3-4.6 8.8-31.5-10.9 24.3-46.6L479 22.8zm57.8 32.6l-45.2 33.4-9.7-5.8 20.9-48.1 9.2 5.6-16.2 35.6 33-25.5 8 4.8zm-15.5 55.5c-4.3-3.5-6.4-7.9-6.4-13.3 0-5.3 2.2-10.6 6.5-15.9 5.2-6.4 11.3-10.7 18.3-13s13.1-1.3 18.2 2.8c4.4 3.6 6.6 8.1 6.5 13.4s-2.3 10.7-6.6 16.1c-5.3 6.5-11.4 10.8-18.3 13-6.9 2.3-13 1.2-18.2-3.1zm6.2-7.3c3.1 2.5 7 2.4 11.6-.5s8.4-6.2 11.6-10.1c4.9-6 5.3-10.7 1.3-14-2.9-2.4-6.6-2.3-11.1.3s-8.6 6.1-12.2 10.5c-4.9 5.9-5.3 10.5-1.2 13.8zm81.9 20.1l-43.5 29.6-6-6.4 18.4-35.6c-1.9 1.6-6.8 5.1-14.6 10.5L547.1 133l-6-6.5 43.5-29.6 8.1 8.7-15.6 29.8c.8-.7 5-3.6 12.6-8.9l13.7-9.4 6 6.6zm2.9 77.4l-9.1 4.2-19.3-29.3 9.1-4.2 6.8 10.3 27.2-12.6c-3.4-.5-6.4-2.7-9-6.8-.3-.4-.6-1-1.2-1.9l8.8-4c4.1 6.2 9.2 9.2 15.3 8.9l4.3 6.6-39.8 18.4 6.9 10.4zm4.1 4.2l6.5 7.4c-2.8 2.4-3.4 5.1-1.9 8.1 1.4 2.7 3.8 4.1 7.3 4.2s8.4-.8 14.8-2.9c-5.8.3-9.7-1.7-11.9-5.9-1.7-3.3-2-6.9-.8-10.7s3.9-6.9 8.1-9.1 8.6-2.7 13.3-1.5 8.2 4 10.6 8.5c2.7 5.1 2.9 10 .7 14.6s-6.1 8.4-11.7 11.4c-7.1 3.7-14.5 5.4-22.2 4.9s-13.1-3.7-16.3-9.7c-3.7-7.1-2.6-13.5 3.5-19.3zm24.1 9.6c1 1.8 2.5 3 4.6 3.5s4.1.2 6.1-.8c1.9-1 3.2-2.4 3.9-4.3s.6-3.6-.3-5.3c-1-1.8-2.5-3-4.6-3.5s-4.1-.2-6.1.8c-1.9 1-3.2 2.4-3.9 4.2-.7 1.9-.6 3.7.3 5.4zm-8.1 51.6c-2.1-5-1.6-9.7 1.4-14.1s7.5-7.8 13.5-10.2c7.1-2.9 14.4-3.9 21.8-3.1 7.4.9 12.3 4.3 14.7 10.2 1.9 4.7 1.6 9.2-1.1 13.5s-7.1 7.7-13.4 10.3c-7.7 3.2-15.2 4.3-22.5 3.4-7.3-1-12.1-4.3-14.4-10zm8.4-3.1c1.3 3.3 5.1 4.3 11.3 3.2s11.4-2.6 15.7-4.3c4.1-1.7 6.6-3.3 7.5-5s1-3.3.3-5c-.8-1.9-2.2-3-4.2-3.5s-5.3-.3-9.7.6a73.77 73.77 0 0 0-13.2 4c-3.8 1.5-6.2 3.1-7.2 4.7-1.2 1.6-1.3 3.4-.5 5.3zm15.3 20.9l4.5 8.2c-4.9 3-6.6 6.7-5.3 11 .7 2.3 1.9 3.9 3.6 4.7 1.7.9 3.6 1 5.6.4 1.6-.5 2.8-1.3 3.7-2.5s1.3-2.3 1.3-3.4-.4-2.8-1-4.9l-1-3.3 8.8-1.5 1.5 4.8c1.7 5.4 4.6 7.4 8.8 6.2 1.8-.6 3.1-1.6 3.8-3.1s.8-3.2.2-5c-1.1-3.5-3.8-5.3-8.3-5.7v-9.7c9 .7 14.7 5.1 17.1 13.1 1.4 4.7 1.4 9-.2 12.7s-4.4 6.3-8.6 7.6c-2.9.9-5.6.9-8.3 0s-4.8-2.6-6.2-5.3c-.2 2.7-1.2 5-2.9 6.8a13.14 13.14 0 0 1-6.2 3.9c-4.2 1.3-8.2.8-12.2-1.3-4-2.2-6.8-5.9-8.4-11.2-1.5-4.8-1.3-9.3.5-13.4s5-6.9 9.2-9.1zm26.1 94.9l-3.9-22.2-2.8.3c-2.5.4-4.2 1.3-5.3 2.7-1 1.3-1.4 2.8-1.1 4.4.6 3.2 3 5.1 7.3 5.8l-.1 8.7c-3.9-.5-7.2-1.9-10-4.2s-4.5-5.5-5.2-9.4c-.8-4.5.2-8.5 2.9-11.9s6.7-5.5 12-6.5c5.8-1 11.3-.3 16.4 2.2s8.2 6.5 9.2 12c.8 4.6-.2 8.5-3 11.6s-6.7 5.1-11.6 6c-1.3.2-2.8.3-4.8.5zm2.5-22.6l2.2 12.4c.9 0 1.6-.1 2.3-.2 2-.4 3.4-1.1 4.3-2.4.9-1.2 1.2-2.5.9-4-.6-3.8-3.9-5.7-9.7-5.8zm-18.1 40.2l-1.3-10.6 12 .3 1.3 10.6-12-.3zm55.7 48.1l-53.2-18.3-.7-11.3 51.5-10 .6 10.8-38.5 6.8 39.7 12.7.6 9.3zm-52.4 7.8l-.1-10.7 11.9 1.6.1 10.7-11.9-1.6z"></path></g></svg>